<svg width="32" height="32" viewBox="0 0 32 32" fill="none" xmlns="http://www.w3.org/2000/svg">
<path d="M3.29275 5.2256C3.47195 4.7936 3.79515 4.6464 4.25275 4.6592C5.07835 4.6816 5.90395 4.6624 6.72955 4.6656C7.73755 4.6688 8.37115 5.1584 8.63355 6.1344C8.89275 7.0976 9.15515 8.0608 9.40475 9.024C9.44955 9.2 9.51995 9.2576 9.70235 9.2576C13.3344 9.2672 16.9664 9.2832 20.5984 9.2992C22.7616 9.3088 24.9248 9.3184 27.088 9.3312C28.1472 9.3376 28.8351 10.1696 28.6015 11.2C28.0128 13.8048 27.4111 16.4064 26.8 19.008C26.5984 19.8656 25.888 20.4 24.9952 20.4256C24.6816 20.4352 24.368 20.4256 24.0543 20.4256C19.6607 20.4256 15.2704 20.4192 10.8768 20.4192C10.7616 20.4192 10.6464 20.4192 10.5312 20.432C10.1024 20.4768 9.79835 20.8224 9.79835 21.2576C9.79835 21.6928 10.1056 22.032 10.5376 22.0736C10.6528 22.0864 10.768 22.0832 10.8832 22.0832C15.7215 22.0832 20.56 22.0832 25.3984 22.0832C25.9872 22.0832 26.336 22.4192 26.2784 22.928C26.2464 23.2192 26.064 23.4016 25.8112 23.5328C26.3008 24.8768 26.0608 26.0288 24.8576 26.8672C23.9808 27.4784 22.7871 27.4208 21.9296 26.7936C20.9472 26.0736 20.6752 25.0752 21.0656 23.5904H16.4416C16.9024 24.9088 16.6528 26.0512 15.472 26.8544C14.5568 27.4816 13.5488 27.4752 12.6336 26.8512C11.4592 26.0544 11.216 24.9184 11.6736 23.568C11.3184 23.568 10.9824 23.5712 10.6496 23.568C9.44315 23.5488 8.51195 22.7488 8.32635 21.5808C8.12795 20.3168 9.05915 19.0944 10.3328 18.9504C10.3904 18.944 10.4448 18.9344 10.5216 18.9248C10.5024 18.8288 10.4864 18.7424 10.464 18.656C9.37595 14.6144 8.28475 10.5696 7.19675 6.528C7.10715 6.2016 7.05275 6.1568 6.71675 6.1568C5.89115 6.1568 5.06555 6.144 4.23995 6.16C3.78235 6.1696 3.45595 6.0128 3.28955 5.5744V5.2288L3.29275 5.2256ZM9.87835 10.752C10.1728 11.8528 10.4608 12.9088 10.7392 13.968C10.7776 14.1152 10.8608 14.1344 10.9888 14.1312C11.8144 14.128 12.6368 14.1312 13.4624 14.1312C13.5232 14.1312 13.5872 14.1184 13.664 14.1088C13.6544 13.9936 13.648 13.8944 13.6352 13.7984C13.5104 12.8608 13.376 11.92 13.2608 10.9824C13.2384 10.8096 13.1808 10.7648 13.0176 10.7648C12.2592 10.7648 11.5008 10.7616 10.7424 10.7584C10.464 10.7584 10.1856 10.7584 9.87835 10.7584V10.752ZM19.5168 10.7968V14.1024C19.5552 14.112 19.5776 14.1248 19.6 14.1248C20.4576 14.1248 21.3152 14.1248 22.1728 14.1312C22.32 14.1312 22.3488 14.0608 22.3647 13.9392C22.4608 13.1968 22.56 12.4544 22.656 11.7088C22.6944 11.4112 22.7296 11.1136 22.768 10.7968H19.5168ZM17.9936 14.1184V10.7872H14.7328C14.8832 11.9104 15.0304 13.0176 15.1808 14.1184H17.9968H17.9936ZM27.1776 10.8096C26.2271 10.8096 25.3152 10.8096 24.4 10.816C24.3488 10.816 24.2687 10.9216 24.2591 10.9888C24.1695 11.584 24.0928 12.1792 24.016 12.7776C23.9584 13.216 23.9039 13.6576 23.8463 14.1152H26.416C26.6688 13.024 26.9184 11.9392 27.1808 10.8096H27.1776ZM14.304 18.9312C14.2944 18.8224 14.2944 18.7328 14.2816 18.6464C14.1568 17.7088 14.0224 16.7712 13.9072 15.8304C13.8848 15.6576 13.824 15.616 13.6608 15.616C12.9024 15.6224 12.144 15.616 11.3856 15.6192C11.3312 15.6192 11.2768 15.632 11.1936 15.6416C11.472 16.6656 11.7376 17.6736 12.0288 18.6752C12.0608 18.7808 12.2272 18.912 12.3328 18.9152C12.9792 18.9376 13.6288 18.9248 14.3008 18.9248L14.304 18.9312ZM19.5168 18.9408C20.2176 18.9408 20.8991 18.9408 21.584 18.9344C21.632 18.9344 21.712 18.8416 21.7215 18.784C21.8591 17.7984 21.9904 16.8096 22.1184 15.8208C22.1248 15.76 22.1184 15.696 22.1184 15.632H19.5168V18.9408ZM15.3824 15.632C15.5232 16.7008 15.6608 17.7376 15.7952 18.7744C15.8112 18.912 15.8784 18.9472 16.0064 18.944C16.5664 18.9376 17.1264 18.944 17.6896 18.944C17.792 18.944 17.8976 18.944 17.9968 18.944V15.6352H15.3824V15.632ZM23.6416 15.632C23.4975 16.7328 23.3535 17.8208 23.2064 18.9376C23.8335 18.9376 24.4352 18.9472 25.0336 18.9344C25.2544 18.928 25.3504 18.7616 25.3952 18.5568C25.5584 17.8272 25.728 17.0976 25.8976 16.3648C25.952 16.128 26.0063 15.8912 26.0639 15.632H23.6448H23.6416ZM14.0576 25.7984C14.6784 25.7984 15.1808 25.3056 15.184 24.6912C15.184 24.0832 14.672 23.568 14.064 23.5712C13.4592 23.5712 12.9632 24.0704 12.9568 24.6752C12.9504 25.2992 13.4368 25.7952 14.0608 25.7984H14.0576ZM23.4464 25.7984C24.0703 25.8048 24.5696 25.3216 24.576 24.6976C24.5824 24.0832 24.08 23.5744 23.4688 23.5712C22.8671 23.568 22.368 24.0576 22.3519 24.6656C22.3391 25.2864 22.8256 25.792 23.4464 25.7984Z" fill="white"/>
</svg>
