<svg width="110" height="72" viewBox="0 0 110 72" fill="none" xmlns="http://www.w3.org/2000/svg">
<path d="M5.32319 50.8763H11.3448L14.9733 48.5273H6.018L6.4812 47.1179H15.3593C16.1953 46.2594 16.4157 45.7125 16.3629 44.6124H4.62839C3.95393 44.8273 3.67522 45.0513 3.39318 45.6303L1 54.3214H4.31962L5.32319 50.8763Z" fill="white"/>
<path d="M17.9841 44.6124L15.6681 52.912C15.7944 53.9786 16.0537 54.3043 16.9033 54.3214H27.2482C28.4593 54.1008 28.9461 53.6681 29.3326 52.1291L31.4942 44.4558H27.8658L26.1674 50.8763C25.9159 51.8965 25.6523 52.2187 24.855 52.1291H20.0685C19.495 51.8954 19.5035 51.5892 19.6825 50.9546L21.5354 44.6124H17.9841Z" fill="white"/>
<path d="M31.031 54.3214H33.9646C34.2293 54.2372 34.2899 53.9988 34.4278 53.5384L36.2035 47.2745L40.1407 54.3214H45.3131L48.1696 44.4558H44.7727L42.6111 52.1291L38.5195 44.4558H34.1962C33.5773 44.7184 33.3341 44.9273 33.1926 45.4737L31.031 54.3214Z" fill="white"/>
<path d="M50.254 54.3214H59.904C60.2821 54.2482 60.401 54.0506 60.5216 53.5384L61.6797 49.4669C61.9178 48.6011 61.6088 48.4659 60.676 48.5273H55.4663L55.8896 47.1179H61.1392L63.6869 44.4558H54.114C53.7609 44.4777 53.6347 44.5406 53.5736 44.769L52.0296 49.8584C51.9981 50.4788 52.1921 50.6433 52.8788 50.6414L58.5916 50.5631L57.974 52.1291H52.8788L50.254 54.3214Z" fill="white"/>
<path d="M64.0729 47.1179L65.6169 44.4558H73.6457L73.9545 45.2388L72.5649 50.1716L71.4069 50.9546H66.0029L64.8449 54.3214H61.9113L63.6869 48.5273H70.0173L70.4033 47.1179H64.0729Z" fill="white"/>
<path fill-rule="evenodd" clip-rule="evenodd" d="M76.7338 44.4558H108L104.526 47.1179H100.743L98.6587 54.3997H95.7251L97.7323 47.1179H94.7987C94.3495 49.7462 93.9659 50.6084 92.9459 50.5631H90.4755L93.4091 54.3997H89.8579L86.6154 50.0933C86.0129 48.9568 86.3304 48.6577 88.005 48.6839H91.2475L91.7107 47.1179H85.689L83.9906 53.0686C83.6201 54.0939 83.353 54.3945 82.7554 54.3997H73.7229C73.1782 54.3165 73.1597 54.0853 73.3369 53.5384L75.4986 45.4737C75.7196 44.7624 76.0214 44.5766 76.7338 44.4558ZM76.7338 51.9725L77.969 47.1179H82.6782L81.2114 51.9725H76.7338Z" fill="white"/>
<path d="M53.2648 56.044H17.7525C14.8544 56.119 14.0433 57.0507 14.0469 60.3504C14.389 69.661 16.4118 71.9331 23.311 70.6859C35.6586 65.8589 42.1149 62.5132 53.2648 56.044Z" fill="white"/>
<path d="M24.3146 42.6549L34.1962 38.9749L65.6169 41.0889L82.0606 42.5766L67.0837 42.7332H50.4856H32.575L24.3146 42.6549Z" fill="white"/>
<path d="M8.95166 42.42L31.9574 14.0759L37.2071 18.304L38.2879 18.1474L50.9488 4.21025L58.8232 11.8835L67.9329 1L88.5455 23.7066L96.1111 20.9662C100.598 20.3858 102.457 21.0999 104.526 24.333C106.501 28.4918 106.915 30.6608 104.912 33.8855C103.261 36.1864 102.106 37.043 99.6623 37.8787C96.8935 38.7928 95.2177 39.0963 91.9423 39.2881H67.8557L50.4856 38.5051L32.575 36.5476C29.9347 35.923 28.6135 35.4573 27.171 33.9638C26.6906 32.5325 26.7818 31.9239 28.0974 31.4582C30.0215 30.915 31.068 30.9428 32.8838 31.4582L48.1696 35.608L59.2864 36.5476L86.2294 24.6462L69.9401 10.0827L68.7049 11.3354L70.8665 16.19L67.9329 15.2504L63.9185 18.9304L68.7049 26.4471L53.4192 12.9797L49.7908 16.8163L52.184 18.6172L47.7835 25.8207L62.0657 34.277L38.8283 26.0556L30.8766 23.0802L35.2771 28.0131L28.715 26.0556L19.2193 33.9638L8.95166 42.42Z" fill="white"/>
<path d="M24.855 52.1291C25.6523 52.2187 25.9159 51.8965 26.1674 50.8763L27.8658 44.4558H31.4942L29.3326 52.1291C28.9461 53.6681 28.4593 54.1008 27.2482 54.3214H16.9033C16.0537 54.3043 15.7944 53.9786 15.6681 52.912L17.9841 44.6124H21.5354L19.6825 50.9546C19.5035 51.5892 19.495 51.8954 20.0685 52.1291M24.855 52.1291C24.7315 52.1291 21.6126 52.1291 20.0685 52.1291M24.855 52.1291H20.0685M5.32319 50.8763H11.3448L14.9733 48.5273H6.018L6.4812 47.1179H15.3593C16.1953 46.2594 16.4157 45.7125 16.3629 44.6124H4.62839C3.95393 44.8273 3.67522 45.0513 3.39318 45.6303L1 54.3214H4.31962L5.32319 50.8763ZM31.031 54.3214H33.9646C34.2293 54.2372 34.2899 53.9988 34.4278 53.5384L36.2035 47.2745L40.1407 54.3214H45.3131L48.1696 44.4558H44.7727L42.6111 52.1291L38.5195 44.4558H34.1962C33.5773 44.7184 33.3341 44.9273 33.1926 45.4737L31.031 54.3214ZM50.254 54.3214H59.904C60.2821 54.2482 60.401 54.0506 60.5216 53.5384L61.6797 49.4669C61.9178 48.6011 61.6088 48.4659 60.676 48.5273H55.4663L55.8896 47.1179H61.1392L63.6869 44.4558H54.114C53.7609 44.4777 53.6347 44.5406 53.5736 44.769L52.0296 49.8584C51.9981 50.4788 52.1921 50.6433 52.8788 50.6414L58.5916 50.5631L57.974 52.1291H52.8788L50.254 54.3214ZM64.0729 47.1179L65.6169 44.4558H73.6457L73.9545 45.2388L72.5649 50.1716L71.4069 50.9546H66.0029L64.8449 54.3214H61.9113L63.6869 48.5273H70.0173L70.4033 47.1179H64.0729ZM76.7338 44.4558H108L104.526 47.1179H100.743L98.6587 54.3997H95.7251L97.7323 47.1179H94.7987C94.3495 49.7462 93.9659 50.6084 92.9459 50.5631H90.4755L93.4091 54.3997H89.8579L86.6154 50.0933C86.0129 48.9568 86.3304 48.6577 88.005 48.6839H91.2475L91.7107 47.1179H85.689L83.9906 53.0686C83.6201 54.0939 83.353 54.3945 82.7554 54.3997H73.7229C73.1782 54.3165 73.1597 54.0853 73.3369 53.5384L75.4986 45.4737C75.7196 44.7624 76.0214 44.5766 76.7338 44.4558ZM77.969 47.1179L76.7338 51.9725H81.2114L82.6782 47.1179H77.969ZM53.2648 56.044H17.7525C14.8544 56.119 14.0433 57.0507 14.0469 60.3504C14.389 69.661 16.4118 71.9331 23.311 70.6859C35.6586 65.8589 42.1149 62.5132 53.2648 56.044ZM24.3146 42.6549L34.1962 38.9749L65.6169 41.0889L82.0606 42.5766L67.0837 42.7332H50.4856H32.575L24.3146 42.6549ZM8.95166 42.42L31.9574 14.0759L37.2071 18.304L38.2879 18.1474L50.9488 4.21025L58.8232 11.8835L67.9329 1L88.5455 23.7066L96.1111 20.9662C100.598 20.3858 102.457 21.0999 104.526 24.333C106.501 28.4918 106.915 30.6608 104.912 33.8855C103.261 36.1864 102.106 37.043 99.6623 37.8787C96.8935 38.7928 95.2177 39.0963 91.9423 39.2881H67.8557L50.4856 38.5051L32.575 36.5476C29.9347 35.923 28.6135 35.4573 27.171 33.9638C26.6906 32.5325 26.7818 31.9239 28.0974 31.4582C30.0215 30.915 31.068 30.9428 32.8838 31.4582L48.1696 35.608L59.2864 36.5476L86.2294 24.6462L69.9401 10.0827L68.7049 11.3354L70.8665 16.19L67.9329 15.2504L63.9185 18.9304L68.7049 26.4471L53.4192 12.9797L49.7908 16.8163L52.184 18.6172L47.7835 25.8207L62.0657 34.277L38.8283 26.0556L30.8766 23.0802L35.2771 28.0131L28.715 26.0556L19.2193 33.9638L8.95166 42.42Z" stroke="white"/>
</svg>
