<svg width="110" height="72" viewBox="0 0 110 72" fill="none" xmlns="http://www.w3.org/2000/svg">
<g clip-path="url(#clip0_154_59)">
<path d="M5.32319 50.8762H11.3448L14.9733 48.5272H6.018L6.4812 47.1178H15.3593C16.1953 46.2593 16.4157 45.7124 16.3629 44.6123H4.62839C3.95393 44.8272 3.67522 45.0512 3.39318 45.6302L1 54.3213H4.31962L5.32319 50.8762Z" fill="#034184"/>
<path d="M17.984 44.6127L15.668 52.9123C15.7943 53.9789 16.0536 54.3046 16.9032 54.3217H27.2481C28.4592 54.1011 28.946 53.6684 29.3325 52.1294L31.4941 44.4561H27.8657L26.1673 50.8766C25.9158 51.8968 25.6522 52.219 24.8549 52.1294H20.0684C19.4949 51.8957 19.5034 51.5895 19.6824 50.9549L21.5353 44.6127H17.984Z" fill="#034184"/>
<path d="M31.0308 54.3217H33.9644C34.2291 54.2375 34.2897 53.9991 34.4276 53.5387L36.2033 47.2748L40.1405 54.3217H45.3129L48.1694 44.4561H44.7725L42.6109 52.1294L38.5193 44.4561H34.196C33.5771 44.7187 33.3339 44.9276 33.1924 45.474L31.0308 54.3217Z" fill="#034184"/>
<path d="M50.2539 54.3217H59.9039C60.282 54.2485 60.4009 54.0509 60.5215 53.5387L61.6796 49.4672C61.9177 48.6014 61.6087 48.4662 60.6759 48.5276H55.4662L55.8895 47.1182H61.1391L63.6868 44.4561H54.1139C53.7608 44.478 53.6346 44.5409 53.5735 44.7693L52.0295 49.8587C51.998 50.4791 52.192 50.6436 52.8787 50.6417L58.5915 50.5634L57.9739 52.1294H52.8787L50.2539 54.3217Z" fill="#034184"/>
<path d="M64.0727 47.1182L65.6167 44.4561H73.6455L73.9543 45.2391L72.5647 50.1719L71.4067 50.9549H66.0027L64.8447 54.3217H61.9111L63.6867 48.5276H70.0171L70.4031 47.1182H64.0727Z" fill="#034184"/>
<path fill-rule="evenodd" clip-rule="evenodd" d="M76.7337 44.4561H108L104.526 47.1182H100.743L98.6586 54.4H95.725L97.7322 47.1182H94.7986C94.3494 49.7465 93.9658 50.6087 92.9458 50.5634H90.4754L93.409 54.4H89.8578L86.6153 50.0936C86.0128 48.9571 86.3303 48.658 88.0049 48.6842H91.2474L91.7106 47.1182H85.6889L83.9905 53.0689C83.62 54.0942 83.3529 54.3948 82.7553 54.4H73.7228C73.1781 54.3168 73.1596 54.0856 73.3368 53.5387L75.4985 45.474C75.7195 44.7627 76.0213 44.5769 76.7337 44.4561ZM76.7337 51.9728L77.9689 47.1182H82.6781L81.2113 51.9728H76.7337Z" fill="#034184"/>
<path d="M53.2648 56.0439H17.7525C14.8544 56.1189 14.0433 57.0506 14.0469 60.3503C14.389 69.6609 16.4118 71.933 23.311 70.6858C35.6586 65.8588 42.1149 62.5131 53.2648 56.0439Z" fill="#034184"/>
<path d="M24.3145 42.6546L34.1961 38.9746L65.6168 41.0886L82.0605 42.5763L67.0836 42.7329H50.4855H32.5749L24.3145 42.6546Z" fill="#034184"/>
<path d="M8.95166 42.42L31.9574 14.0759L37.2071 18.304L38.2879 18.1474L50.9488 4.21025L58.8232 11.8835L67.9329 1L88.5455 23.7066L96.1111 20.9662C100.598 20.3858 102.457 21.0999 104.526 24.333C106.501 28.4918 106.915 30.6608 104.912 33.8855C103.261 36.1864 102.106 37.043 99.6623 37.8787C96.8935 38.7928 95.2177 39.0963 91.9423 39.2881H67.8557L50.4856 38.5051L32.575 36.5476C29.9347 35.923 28.6135 35.4573 27.171 33.9638C26.6906 32.5325 26.7818 31.9239 28.0974 31.4582C30.0215 30.915 31.068 30.9428 32.8838 31.4582L48.1696 35.608L59.2864 36.5476L86.2294 24.6462L69.9401 10.0827L68.7049 11.3354L70.8665 16.19L67.9329 15.2504L63.9185 18.9304L68.7049 26.4471L53.4192 12.9797L49.7908 16.8163L52.184 18.6172L47.7835 25.8207L62.0657 34.277L38.8283 26.0556L30.8766 23.0802L35.2771 28.0131L28.715 26.0556L19.2193 33.9638L8.95166 42.42Z" fill="#034184"/>
<path d="M24.855 52.1291C25.6523 52.2187 25.9159 51.8965 26.1674 50.8763L27.8658 44.4558H31.4942L29.3326 52.1291C28.9461 53.6681 28.4593 54.1008 27.2482 54.3214H16.9033C16.0537 54.3043 15.7944 53.9786 15.6681 52.912L17.9841 44.6124H21.5354L19.6825 50.9546C19.5035 51.5892 19.495 51.8954 20.0685 52.1291M24.855 52.1291C24.7315 52.1291 21.6126 52.1291 20.0685 52.1291M24.855 52.1291H20.0685M5.32319 50.8763H11.3448L14.9733 48.5273H6.018L6.4812 47.1179H15.3593C16.1953 46.2594 16.4157 45.7125 16.3629 44.6124H4.62839C3.95393 44.8273 3.67522 45.0513 3.39318 45.6303L1 54.3214H4.31962L5.32319 50.8763ZM31.031 54.3214H33.9646C34.2293 54.2372 34.2899 53.9988 34.4278 53.5384L36.2035 47.2745L40.1407 54.3214H45.3131L48.1696 44.4558H44.7727L42.6111 52.1291L38.5195 44.4558H34.1962C33.5773 44.7184 33.3341 44.9273 33.1926 45.4737L31.031 54.3214ZM50.254 54.3214H59.904C60.2821 54.2482 60.401 54.0506 60.5216 53.5384L61.6797 49.4669C61.9178 48.6011 61.6088 48.4659 60.676 48.5273H55.4663L55.8896 47.1179H61.1392L63.6869 44.4558H54.114C53.7609 44.4777 53.6347 44.5406 53.5736 44.769L52.0296 49.8584C51.9981 50.4788 52.1921 50.6433 52.8788 50.6414L58.5916 50.5631L57.974 52.1291H52.8788L50.254 54.3214ZM64.0729 47.1179L65.6169 44.4558H73.6457L73.9545 45.2388L72.5649 50.1716L71.4069 50.9546H66.0029L64.8449 54.3214H61.9113L63.6869 48.5273H70.0173L70.4033 47.1179H64.0729ZM76.7338 44.4558H108L104.526 47.1179H100.743L98.6587 54.3997H95.7251L97.7323 47.1179H94.7987C94.3495 49.7462 93.9659 50.6084 92.9459 50.5631H90.4755L93.4091 54.3997H89.8579L86.6154 50.0933C86.0129 48.9568 86.3304 48.6577 88.005 48.6839H91.2475L91.7107 47.1179H85.689L83.9906 53.0686C83.6201 54.0939 83.353 54.3945 82.7554 54.3997H73.7229C73.1782 54.3165 73.1597 54.0853 73.3369 53.5384L75.4986 45.4737C75.7196 44.7624 76.0214 44.5766 76.7338 44.4558ZM77.969 47.1179L76.7338 51.9725H81.2114L82.6782 47.1179H77.969ZM53.2648 56.044H17.7525C14.8544 56.119 14.0433 57.0507 14.0469 60.3504C14.389 69.661 16.4118 71.9331 23.311 70.6859C35.6586 65.8589 42.1149 62.5132 53.2648 56.044ZM24.3146 42.6549L34.1962 38.9749L65.6169 41.0889L82.0606 42.5766L67.0837 42.7332H50.4856H32.575L24.3146 42.6549ZM8.95166 42.42L31.9574 14.0759L37.2071 18.304L38.2879 18.1474L50.9488 4.21025L58.8232 11.8835L67.9329 1L88.5455 23.7066L96.1111 20.9662C100.598 20.3858 102.457 21.0999 104.526 24.333C106.501 28.4918 106.915 30.6608 104.912 33.8855C103.261 36.1864 102.106 37.043 99.6623 37.8787C96.8935 38.7928 95.2177 39.0963 91.9423 39.2881H67.8557L50.4856 38.5051L32.575 36.5476C29.9347 35.923 28.6135 35.4573 27.171 33.9638C26.6906 32.5325 26.7818 31.9239 28.0974 31.4582C30.0215 30.915 31.068 30.9428 32.8838 31.4582L48.1696 35.608L59.2864 36.5476L86.2294 24.6462L69.9401 10.0827L68.7049 11.3354L70.8665 16.19L67.9329 15.2504L63.9185 18.9304L68.7049 26.4471L53.4192 12.9797L49.7908 16.8163L52.184 18.6172L47.7835 25.8207L62.0657 34.277L38.8283 26.0556L30.8766 23.0802L35.2771 28.0131L28.715 26.0556L19.2193 33.9638L8.95166 42.42Z" stroke="#034184"/>
</g>
<defs>
<clipPath id="clip0_154_59">
<rect width="110" height="72" fill="white"/>
</clipPath>
</defs>
</svg>
