<svg width="30" height="30" viewBox="0 0 30 30" fill="none" xmlns="http://www.w3.org/2000/svg">
<g clip-path="url(#clip0_98_205)">
<path d="M3 6H27C28.656 6 30 4.6575 30 3C30 1.3425 28.6575 0 27 0H3C1.3425 0 0 1.3425 0 3C0 4.6575 1.3425 6 3 6ZM27 12H3C1.3425 12 0 13.3425 0 15C0 16.6575 1.3425 18 3 18H27C28.656 18 30 16.6575 30 15C30 13.3425 28.6575 12 27 12ZM27 24H3C1.3425 24 0 25.3425 0 27C0 28.6575 1.3425 30 3 30H27C28.656 30 30 28.6575 30 27C30 25.3425 28.6575 24 27 24Z" fill="white"/>
</g>
<defs>
<clipPath id="clip0_98_205">
<rect width="30" height="30" fill="white"/>
</clipPath>
</defs>
</svg>
