<svg width="50" height="50" viewBox="0 0 50 50" fill="none" xmlns="http://www.w3.org/2000/svg">
<g clip-path="url(#clip0_138_64)">
<mask id="mask0_138_64" style="mask-type:luminance" maskUnits="userSpaceOnUse" x="0" y="0" width="50" height="50">
<path d="M50 0H0V50H50V0Z" fill="white"/>
</mask>
<g mask="url(#mask0_138_64)">
<path fill-rule="evenodd" clip-rule="evenodd" d="M24.9713 0.000219031C24.7163 0.00387778 24.4647 0.0536787 24.2306 0.146809C23.9966 0.239938 23.7848 0.374561 23.6074 0.542982C23.4299 0.711402 23.2903 0.910292 23.1964 1.12836C23.1025 1.34643 23.0563 1.57939 23.0603 1.8139V48.1888C23.0567 48.4254 23.1042 48.6605 23.2001 48.88C23.296 49.0996 23.4385 49.2994 23.6191 49.4679C23.7997 49.6364 24.015 49.7703 24.2523 49.8616C24.4896 49.9529 24.7443 50 25.0016 50C25.2589 50 25.5136 49.9529 25.7509 49.8616C25.9883 49.7703 26.2035 49.6364 26.3841 49.4679C26.5648 49.2994 26.7072 49.0996 26.8031 48.88C26.899 48.6605 26.9466 48.4254 26.9429 48.1888V1.8139C26.947 1.57469 26.8988 1.33713 26.8012 1.11539C26.7035 0.89365 26.5585 0.692208 26.3746 0.523037C26.1907 0.353866 25.9717 0.220393 25.7306 0.130569C25.4896 0.0407459 25.2313 -0.00352431 24.9713 0.000219031Z" fill="#53EAFB"/>
<path fill-rule="evenodd" clip-rule="evenodd" d="M19.2112 1.79984C18.7917 1.79729 18.3826 1.91982 18.0451 2.14903C17.7076 2.37824 17.4599 2.70188 17.3391 3.0714C17.2183 3.44093 17.2308 3.83637 17.3749 4.19878C17.5189 4.56119 17.7867 4.87109 18.1381 5.08181L23.9166 8.65314C24.2371 8.85164 24.6146 8.95765 25.001 8.95765C25.3874 8.95765 25.7649 8.85164 26.0854 8.65314L31.8639 5.08181C32.0755 4.95082 32.257 4.78272 32.398 4.58722C32.539 4.39171 32.6367 4.17248 32.6857 3.94222C32.7346 3.71196 32.7338 3.47509 32.6832 3.24513C32.6326 3.01518 32.5332 2.79674 32.3908 2.6021C32.2484 2.40746 32.0657 2.24048 31.8532 2.11078C31.6407 1.98108 31.4024 1.89117 31.1521 1.84616C30.9018 1.80114 30.6442 1.80191 30.3942 1.84844C30.1442 1.89497 29.9067 1.98633 29.695 2.11732L25.001 5.01903L20.307 2.11732C19.9849 1.91223 19.6029 1.80156 19.2112 1.79984Z" fill="#53EAFB"/>
<path fill-rule="evenodd" clip-rule="evenodd" d="M24.9859 41.0323C24.6049 41.0348 24.233 41.1402 23.9167 41.3357L18.1382 44.9105C17.9266 45.0415 17.7451 45.2096 17.6041 45.4051C17.4631 45.6006 17.3653 45.8196 17.3164 46.0499C17.2674 46.2802 17.2683 46.517 17.3188 46.747C17.3694 46.977 17.4688 47.1956 17.6112 47.3902C17.7536 47.5849 17.9363 47.7518 18.1488 47.8816C18.3614 48.0113 18.5996 48.1012 18.8499 48.1462C19.1003 48.1912 19.3578 48.1905 19.6078 48.144C19.8578 48.0975 20.0954 48.006 20.3071 47.875L25.0011 44.9698L29.6951 47.875C29.9068 48.006 30.1444 48.0975 30.3944 48.144C30.6444 48.1905 30.9019 48.1912 31.1523 48.1462C31.4026 48.1012 31.6408 48.0113 31.8534 47.8816C32.0659 47.7518 32.2486 47.5849 32.391 47.3902C32.5335 47.1956 32.6328 46.977 32.6834 46.747C32.7339 46.517 32.7348 46.2802 32.6858 46.0499C32.6369 45.8196 32.5391 45.6006 32.3981 45.4051C32.2571 45.2096 32.0756 45.0415 31.864 44.9105L26.0855 41.3357C25.7606 41.1349 25.3774 41.0292 24.9859 41.0323Z" fill="#53EAFB"/>
<path fill-rule="evenodd" clip-rule="evenodd" d="M46.9165 11.621C46.5463 11.6105 46.1806 11.6976 45.8625 11.8721L2.198 35.0614C1.96672 35.1734 1.76242 35.3273 1.59734 35.5137C1.43227 35.7001 1.30981 35.9152 1.23731 36.1462C1.16481 36.3772 1.14377 36.6193 1.17544 36.8579C1.20711 37.0966 1.29084 37.3268 1.42162 37.535C1.5524 37.7431 1.72753 37.925 1.93651 38.0694C2.14549 38.2138 2.38402 38.3179 2.6378 38.3755C2.89158 38.433 3.15538 38.4427 3.41339 38.4043C3.6714 38.3658 3.91831 38.2798 4.13931 38.1514L47.8038 14.9656C48.1748 14.7753 48.4678 14.4783 48.6377 14.1201C48.8076 13.7619 48.845 13.3623 48.7443 12.9827C48.6436 12.603 48.4103 12.2641 48.0801 12.0181C47.75 11.7722 47.3412 11.6327 46.9165 11.621Z" fill="#53EAFB"/>
<path fill-rule="evenodd" clip-rule="evenodd" d="M42.1653 7.88928C41.6849 7.91029 41.2301 8.09447 40.8889 8.40632C40.5478 8.71818 40.3446 9.13553 40.3188 9.57729L39.8449 15.9666C39.8185 16.3209 39.9076 16.6744 40.1008 16.9819C40.2939 17.2895 40.5824 17.537 40.9293 17.693L47.1817 20.511C47.4107 20.6141 47.6596 20.6747 47.9141 20.6893C48.1687 20.7039 48.4238 20.6723 48.665 20.5962C48.9063 20.5201 49.1288 20.4011 49.32 20.2459C49.5112 20.0907 49.6673 19.9023 49.7793 19.6916C49.8914 19.4809 49.9572 19.252 49.9731 19.0178C49.9889 18.7837 49.9544 18.5489 49.8717 18.3271C49.7889 18.1052 49.6594 17.9006 49.4906 17.7248C49.3218 17.549 49.117 17.4054 48.8879 17.3024L43.8071 15.0145L44.1939 9.82143C44.2168 9.56802 44.1807 9.31308 44.0879 9.07355C43.9951 8.83402 43.8477 8.6154 43.6556 8.43248C43.4636 8.24956 43.2313 8.10655 42.9743 8.01287C42.7173 7.9192 42.4415 7.87701 42.1653 7.88928Z" fill="#53EAFB"/>
<path fill-rule="evenodd" clip-rule="evenodd" d="M1.88345 29.2997C1.4474 29.3117 1.02845 29.4584 0.69415 29.7162C0.359851 29.974 0.129685 30.3278 0.0407632 30.7207C-0.0481582 31.1135 0.00934726 31.5225 0.204007 31.8816C0.398667 32.2407 0.719137 32.529 1.11375 32.7001L6.19454 34.988L5.80779 40.1811C5.79034 40.4151 5.82318 40.6501 5.90443 40.8725C5.98569 41.0949 6.11378 41.3003 6.28137 41.4772C6.44897 41.654 6.65279 41.7987 6.88121 41.9031C7.10962 42.0075 7.35816 42.0695 7.61261 42.0856C7.86707 42.1016 8.12247 42.0714 8.36422 41.9966C8.60597 41.9219 8.82935 41.804 9.02159 41.6498C9.21383 41.4956 9.37117 41.308 9.48463 41.0979C9.59809 40.8878 9.66544 40.6593 9.68284 40.4252L10.1568 34.0359C10.1832 33.6816 10.0941 33.3281 9.9009 33.0205C9.70774 32.713 9.41928 32.4655 9.07239 32.3095L2.81998 29.4915C2.53018 29.3564 2.20817 29.2906 1.88345 29.2997Z" fill="#53EAFB"/>
<path fill-rule="evenodd" clip-rule="evenodd" d="M3.02427 11.6002C2.60575 11.6242 2.20692 11.7721 1.88745 12.022C1.56799 12.2719 1.34506 12.6102 1.25201 12.9863C1.15897 13.3624 1.20081 13.7561 1.37127 14.1085C1.54174 14.4609 1.83167 14.7531 2.1977 14.9414L45.8622 38.1306C46.083 38.2479 46.3268 38.3239 46.5796 38.3545C46.8324 38.3851 47.0892 38.3697 47.3355 38.3089C47.5818 38.2482 47.8127 38.1433 48.0149 38.0005C48.2172 37.8577 48.3869 37.6798 48.5144 37.4767C48.6419 37.2736 48.7246 37.0492 48.7578 36.8167C48.7911 36.5841 48.7743 36.3479 48.7082 36.1213C48.6422 35.8948 48.5283 35.6824 48.3731 35.4964C48.2179 35.3103 48.0243 35.1544 47.8035 35.0371L4.13902 11.8478C3.80302 11.6639 3.41449 11.5776 3.02427 11.6002Z" fill="#53EAFB"/>
<path fill-rule="evenodd" clip-rule="evenodd" d="M48.0613 29.2998C47.7558 29.2993 47.4544 29.3649 47.1817 29.4916L40.9293 32.3097C40.5824 32.4656 40.2939 32.7132 40.1008 33.0207C39.9076 33.3282 39.8185 33.6817 39.8449 34.036L40.3188 40.4254C40.3362 40.6594 40.4036 40.8879 40.517 41.0981C40.6305 41.3082 40.7878 41.4958 40.9801 41.65C41.1723 41.8041 41.3957 41.922 41.6374 41.9968C41.8792 42.0715 42.1346 42.1017 42.389 42.0857C42.6435 42.0697 42.892 42.0076 43.1205 41.9033C43.3489 41.7989 43.5527 41.6542 43.7203 41.4773C43.8879 41.3005 44.016 41.095 44.0972 40.8727C44.1785 40.6503 44.2113 40.4153 44.1939 40.1812L43.8071 34.9882L48.8879 32.7003C49.2864 32.527 49.609 32.234 49.8026 31.8698C49.9962 31.5055 50.0492 31.0917 49.953 30.696C49.8569 30.3003 49.6172 29.9464 49.2734 29.6926C48.9296 29.4389 48.5021 29.3005 48.0613 29.2998Z" fill="#53EAFB"/>
<path fill-rule="evenodd" clip-rule="evenodd" d="M7.77484 7.88942C7.50372 7.8852 7.23465 7.93321 6.98495 8.03045C6.73525 8.1277 6.51047 8.27196 6.32508 8.45398C6.1397 8.636 5.99782 8.8519 5.90858 9.08742C5.81935 9.32295 5.78474 9.57299 5.80698 9.82157L6.19373 15.0146L1.11294 17.3025C0.650352 17.5106 0.296596 17.8792 0.12949 18.3272C-0.0376162 18.7752 -0.00438297 19.266 0.221878 19.6915C0.448139 20.117 0.848894 20.4424 1.33598 20.5961C1.82307 20.7498 2.35659 20.7192 2.81917 20.5111L9.07158 17.6931C9.41847 17.5372 9.70693 17.2896 9.90009 16.9821C10.0933 16.6746 10.1823 16.3211 10.156 15.9667L9.68203 9.57744C9.65518 9.12637 9.44349 8.70138 9.08959 8.38815C8.73569 8.07493 8.2659 7.89673 7.77484 7.88942Z" fill="#53EAFB"/>
<path fill-rule="evenodd" clip-rule="evenodd" d="M19.2112 8.92875C18.7917 8.9262 18.3826 9.04874 18.0451 9.27795C17.7076 9.50716 17.4599 9.83068 17.3391 10.2002C17.2183 10.5697 17.2308 10.9653 17.3749 11.3278C17.5189 11.6902 17.7867 11.9998 18.1381 12.2106L23.9166 15.7819C24.2371 15.9805 24.6146 16.0864 25.001 16.0864C25.3874 16.0864 25.7649 15.9805 26.0854 15.7819L31.8639 12.2106C32.0755 12.0796 32.257 11.9116 32.398 11.7161C32.539 11.5206 32.6367 11.3015 32.6857 11.0712C32.7346 10.8409 32.7338 10.6041 32.6832 10.3741C32.6326 10.1441 32.5332 9.92555 32.3908 9.7309C32.2484 9.53626 32.0657 9.36928 31.8532 9.23958C31.6407 9.10988 31.4024 9.01997 31.1521 8.97496C30.9018 8.92995 30.6442 8.93083 30.3942 8.97736C30.1442 9.02389 29.9067 9.11513 29.695 9.24612L25.001 12.1479L20.307 9.24612C19.9849 9.04103 19.6029 8.93047 19.2112 8.92875Z" fill="#53EAFB"/>
<path fill-rule="evenodd" clip-rule="evenodd" d="M24.9859 33.9073C24.6048 33.9097 24.2329 34.0152 23.9166 34.2107L18.1382 37.7855C17.7108 38.05 17.4152 38.4598 17.3164 38.9249C17.2175 39.3899 17.3236 39.8721 17.6112 40.2652C17.8988 40.6583 18.3444 40.9302 18.8499 41.0211C19.3555 41.1121 19.8796 41.0145 20.307 40.75L25.001 37.8448L29.6951 40.75C29.9067 40.881 30.1443 40.9722 30.3943 41.0187C30.6443 41.0653 30.9018 41.0662 31.1521 41.0211C31.4024 40.9761 31.6407 40.8862 31.8532 40.7565C32.0658 40.6268 32.2485 40.4598 32.3909 40.2652C32.5333 40.0706 32.6326 39.8519 32.6832 39.622C32.7338 39.392 32.7346 39.1551 32.6857 38.9249C32.6368 38.6946 32.539 38.4756 32.398 38.2801C32.257 38.0846 32.0755 37.9165 31.8639 37.7855L26.0854 34.2107C25.7605 34.0099 25.3773 33.9041 24.9859 33.9073Z" fill="#53EAFB"/>
<path fill-rule="evenodd" clip-rule="evenodd" d="M41.3506 25.7319C41.0451 25.7313 40.7437 25.797 40.471 25.9237L34.2186 28.7417C33.8724 28.8982 33.5847 29.1459 33.3923 29.4534C33.1998 29.7609 33.1113 30.1141 33.138 30.4681L33.6081 36.8574C33.6433 37.3301 33.8812 37.7707 34.2695 38.082C34.6578 38.3933 35.1646 38.5499 35.6784 38.5175C36.1923 38.4851 36.6711 38.2663 37.0096 37.9092C37.348 37.552 37.5184 37.086 37.4832 36.6133L37.1002 31.4202L42.181 29.1323C42.5798 28.9589 42.9026 28.6658 43.0961 28.3012C43.2896 27.9366 43.3424 27.5222 43.2457 27.1263C43.149 26.7304 42.9087 26.3766 42.5642 26.1232C42.2198 25.8697 41.7918 25.7317 41.3506 25.7319Z" fill="#53EAFB"/>
<path fill-rule="evenodd" clip-rule="evenodd" d="M14.4867 11.4466C14.2156 11.4423 13.9465 11.4903 13.6968 11.5876C13.4471 11.6848 13.2224 11.8291 13.037 12.0111C12.8516 12.1931 12.7097 12.409 12.6205 12.6446C12.5312 12.8801 12.4966 13.1301 12.5189 13.3787L12.9018 18.5718L7.82103 20.8597C7.59196 20.9629 7.38724 21.1067 7.21857 21.2828C7.0499 21.4588 6.92058 21.6637 6.83799 21.8857C6.75541 22.1077 6.72118 22.3425 6.73726 22.5767C6.75334 22.8109 6.81941 23.0398 6.9317 23.2505C7.044 23.4611 7.20031 23.6494 7.39172 23.8046C7.58313 23.9597 7.80588 24.0787 8.04726 24.1546C8.28863 24.2306 8.54391 24.2621 8.7985 24.2473C9.05309 24.2324 9.30202 24.1716 9.53106 24.0683L15.7835 21.2503C16.129 21.0941 16.4162 20.8469 16.6087 20.5401C16.8011 20.2334 16.89 19.8808 16.8641 19.5274L16.3939 13.1381C16.368 12.6864 16.1567 12.2606 15.8027 11.9466C15.4487 11.6326 14.9784 11.4539 14.4867 11.4466Z" fill="#53EAFB"/>
<path fill-rule="evenodd" clip-rule="evenodd" d="M8.59454 25.7318C8.15818 25.7431 7.73868 25.8893 7.40377 26.1469C7.06886 26.4044 6.83807 26.7583 6.74867 27.1513C6.65927 27.5443 6.71648 27.9535 6.91105 28.3129C7.10562 28.6723 7.4262 28.961 7.82105 29.1323L12.9018 31.4202L12.5189 36.6133C12.4838 37.0858 12.6542 37.5519 12.9927 37.9089C13.3311 38.2659 13.8099 38.4847 14.3237 38.5171C14.8374 38.5495 15.3441 38.3928 15.7324 38.0815C16.1206 37.7703 16.3586 37.33 16.3939 36.8574L16.8679 30.468C16.8942 30.1137 16.8052 29.7602 16.612 29.4527C16.4188 29.1452 16.1304 28.8976 15.7835 28.7417L9.53107 25.9237C9.24125 25.7887 8.91924 25.7227 8.59454 25.7318Z" fill="#53EAFB"/>
<path fill-rule="evenodd" clip-rule="evenodd" d="M35.4584 11.4502C34.9773 11.4703 34.5215 11.654 34.1796 11.966C33.8376 12.278 33.634 12.6957 33.6081 13.1381L33.1342 19.5274C33.1086 19.8812 33.1981 20.2341 33.3912 20.5409C33.5843 20.8477 33.8723 21.0947 34.2186 21.2503L40.471 24.0684C40.7 24.1717 40.9489 24.2324 41.2035 24.2472C41.4581 24.262 41.7133 24.2305 41.9547 24.1545C42.196 24.0786 42.4187 23.9598 42.6101 23.8047C42.8015 23.6495 42.9578 23.4612 43.0701 23.2506C43.1823 23.0399 43.2484 22.811 43.2645 22.5768C43.2806 22.3426 43.2464 22.1078 43.1638 21.8858C43.0813 21.6638 42.952 21.4589 42.7833 21.2829C42.6147 21.1068 42.41 20.963 42.181 20.8597L37.1002 18.5719L37.4832 13.3788C37.5055 13.126 37.4691 12.8714 37.3762 12.6326C37.2834 12.3937 37.1363 12.176 36.9447 11.9935C36.7531 11.811 36.5215 11.668 36.2652 11.5743C36.009 11.4806 35.7339 11.4385 35.4584 11.4502Z" fill="#53EAFB"/>
</g>
</g>
<defs>
<clipPath id="clip0_138_64">
<rect width="50" height="50" fill="white"/>
</clipPath>
</defs>
</svg>
